<svg width="36" height="36" viewBox="0 0 36 36" fill="none" xmlns="http://www.w3.org/2000/svg">
<path d="M17.6293 0C7.94112 0 0 8.10811 0 18C0 21.8108 1.19117 25.3784 3.17645 28.2973C4.12938 24.973 6.67054 16.5405 8.97347 13.0541C11.8323 8.59459 17.0734 2.75676 16.4381 10.5405C15.8028 18.4054 14.3734 29.8378 17.3116 19.7838C20.2499 9.72973 25.491 5.35135 27.4763 5.51351C29.4616 5.67568 29.541 8.59459 28.1116 12.0811C26.7616 15.4054 23.2675 26.8378 27.3175 33.1622C32.1615 29.9189 35.4174 24.4054 35.4174 18C35.338 8.10811 27.3969 0 17.6293 0Z" fill="#A5E13A"/>
<path d="M16.3587 5.06915C20.2499 -7.17409 13.4205 5.55564 11.3558 13.907C9.68817 20.6367 6.3529 20.1502 5.71761 15.5286C5.16173 10.907 6.19407 4.0151 6.51172 2.39348C6.82936 0.771859 4.44703 0.12321 1.90587 9.69078C0.873524 13.5016 0.317645 17.0692 -1.51465e-07 19.9881C3.01763 22.3394 6.74995 23.7178 10.7999 23.7178C13.6587 23.7178 16.2793 23.0692 18.6616 21.8529C17.0734 19.1773 14.0558 12.6097 16.3587 5.06915Z" transform="translate(6.90881 12.2822)" fill="#A5E13A"/>
</svg>
